<svg width="16" height="16" viewBox="0 0 16 16" fill="none" xmlns="http://www.w3.org/2000/svg">
<circle cx="8" cy="8" r="8" fill="#F9FAFB"/>
<g clip-path="url(#clip0_4148_11340)">
<path d="M10.5228 3.9617C10.473 3.7124 10.2541 3.53296 9.99987 3.53296C9.74564 3.53296 9.52675 3.7124 9.47689 3.9617L9.34969 4.59773C9.30746 4.80885 9.14243 4.97388 8.93131 5.01611L8.29527 5.14332C8.04598 5.19317 7.86654 5.41206 7.86654 5.66629C7.86654 5.92052 8.04598 6.13941 8.29527 6.18927L8.93131 6.31647C9.14243 6.3587 9.30746 6.52373 9.34969 6.73486L9.47689 7.37089C9.52675 7.62018 9.74564 7.79963 9.99987 7.79963C10.2541 7.79963 10.473 7.62018 10.5228 7.37089L10.6501 6.73486C10.6923 6.52373 10.8573 6.3587 11.0684 6.31647L11.7045 6.18927C11.9538 6.13941 12.1332 5.92052 12.1332 5.66629C12.1332 5.41206 11.9538 5.19317 11.7045 5.14332L11.0684 5.01611C10.8573 4.97388 10.6923 4.80885 10.6501 4.59773L10.5228 3.9617Z" fill="#1D2939"/>
<path d="M5.70583 6.03097C5.63324 5.81319 5.42943 5.66629 5.19987 5.66629C4.97031 5.66629 4.7665 5.81319 4.69391 6.03097L4.32923 7.12501C4.27614 7.28426 4.15117 7.40923 3.99192 7.46232L2.89788 7.82699C2.6801 7.89959 2.5332 8.1034 2.5332 8.33296C2.5332 8.56252 2.6801 8.76633 2.89788 8.83892L3.99192 9.2036C4.15117 9.25669 4.27614 9.38166 4.32923 9.54091L4.69391 10.6349C4.7665 10.8527 4.97031 10.9996 5.19987 10.9996C5.42943 10.9996 5.63324 10.8527 5.70583 10.6349L6.07051 9.54091C6.1236 9.38166 6.24857 9.25669 6.40782 9.2036L7.50186 8.83892C7.71964 8.76633 7.86654 8.56252 7.86654 8.33296C7.86654 8.1034 7.71964 7.89959 7.50186 7.82699L6.40782 7.46232C6.24857 7.40923 6.1236 7.28426 6.07051 7.12501L5.70583 6.03097Z" fill="#1D2939"/>
<path d="M9.43917 10.2976C9.36657 10.0799 9.16277 9.93296 8.9332 9.93296C8.70364 9.93296 8.49983 10.0799 8.42724 10.2976L8.32923 10.5917C8.27614 10.7509 8.15117 10.8759 7.99192 10.929L7.69788 11.027C7.4801 11.0996 7.3332 11.3034 7.3332 11.533C7.3332 11.7625 7.4801 11.9663 7.69788 12.0389L7.99192 12.1369C8.15117 12.19 8.27614 12.315 8.32923 12.4742L8.42724 12.7683C8.49983 12.9861 8.70364 13.133 8.9332 13.133C9.16277 13.133 9.36657 12.9861 9.43917 12.7683L9.53718 12.4742C9.59026 12.315 9.71523 12.19 9.87449 12.1369L10.1685 12.0389C10.3863 11.9663 10.5332 11.7625 10.5332 11.533C10.5332 11.3034 10.3863 11.0996 10.1685 11.027L9.87449 10.929C9.71523 10.8759 9.59026 10.7509 9.53718 10.5917L9.43917 10.2976Z" fill="#1D2939"/>
</g>
<defs>
<clipPath id="clip0_4148_11340">
<rect width="10.6667" height="10.6667" fill="white" transform="translate(2 3)"/>
</clipPath>
</defs>
</svg>
