<svg width="14" height="14" viewBox="0 0 14 14" fill="none" xmlns="http://www.w3.org/2000/svg">
<path  d="M0.786133 8C0.786133 4.96243 3.24857 2.5 6.28613 2.5C6.56228 2.5 6.78613 2.72386 6.78613 3V7.5H11.2861C11.5623 7.5 11.7861 7.72386 11.7861 8C11.7861 11.0376 9.3237 13.5 6.28613 13.5C3.24857 13.5 0.786133 11.0376 0.786133 8Z"/>
<path  d="M7.78613 1C7.78613 0.723858 8.00999 0.5 8.28613 0.5C11.3237 0.5 13.7861 2.96243 13.7861 6C13.7861 6.27614 13.5623 6.5 13.2861 6.5H8.28613C8.00999 6.5 7.78613 6.27614 7.78613 6V1Z"/>
</svg>
