<svg width="16" height="16" viewBox="0 0 16 16" fill="none" xmlns="http://www.w3.org/2000/svg">
<g id="Icon">
<path id="Vector" d="M11.9877 12.4832C11.0747 11.2783 9.62826 10.5 8 10.5C6.37174 10.5 4.92526 11.2783 4.01231 12.4832M11.9877 12.4832C13.2223 11.3842 14 9.78293 14 8C14 4.68629 11.3137 2 8 2C4.68629 2 2 4.68629 2 8C2 9.78293 2.77767 11.3842 4.01231 12.4832M11.9877 12.4832C10.9277 13.4267 9.53078 14 8 14C6.46922 14 5.07234 13.4267 4.01231 12.4832M10 6.5C10 7.60457 9.10457 8.5 8 8.5C6.89543 8.5 6 7.60457 6 6.5C6 5.39543 6.89543 4.5 8 4.5C9.10457 4.5 10 5.39543 10 6.5Z" stroke="#EFF2F5" stroke-linecap="round" stroke-linejoin="round"/>
</g>
</svg>
