<svg width="12" height="14" viewBox="0 0 12 14" fill="none" xmlns="http://www.w3.org/2000/svg">
<path d="M7.82692 5L7.59615 11M4.40385 11L4.17308 5M10.8184 2.86038C11.0464 2.89481 11.2736 2.93165 11.5 2.97086M10.8184 2.86038L10.1065 12.115C10.0464 12.8965 9.39476 13.5 8.61095 13.5H3.38905C2.60524 13.5 1.95358 12.8965 1.89346 12.115L1.18157 2.86038M10.8184 2.86038C10.0542 2.74496 9.281 2.65657 8.5 2.59622M0.5 2.97086C0.726383 2.93165 0.953581 2.89481 1.18157 2.86038M1.18157 2.86038C1.94585 2.74496 2.719 2.65657 3.5 2.59622M8.5 2.59622V1.98546C8.5 1.19922 7.8929 0.542821 7.10706 0.517682C6.73948 0.505924 6.37043 0.5 6 0.5C5.62957 0.5 5.26052 0.505924 4.89294 0.517682C4.1071 0.542821 3.5 1.19922 3.5 1.98546V2.59622M8.5 2.59622C7.67504 2.53247 6.84131 2.5 6 2.5C5.15869 2.5 4.32496 2.53247 3.5 2.59622" stroke-linecap="round" stroke-linejoin="round"/>
</svg>
