<svg width="16" height="12" viewBox="0 0 16 12" fill="none" xmlns="http://www.w3.org/2000/svg">
<path d="M1.35684 6.21493C1.31078 6.07676 1.31074 5.92716 1.35671 5.78895C2.28229 3.00648 4.907 1 8.00035 1C11.0923 1 13.716 3.00462 14.6427 5.78507C14.6887 5.92325 14.6888 6.07285 14.6428 6.21105C13.7172 8.99352 11.0925 11 7.99918 11C4.90727 11 2.28356 8.99539 1.35684 6.21493Z" stroke="#98A2B3" stroke-linecap="round" stroke-linejoin="round"/>
<path d="M9.99981 6C9.99981 7.10457 9.10437 8 7.9998 8C6.89524 8 5.9998 7.10457 5.9998 6C5.9998 4.89543 6.89524 4 7.9998 4C9.10437 4 9.99981 4.89543 9.99981 6Z" stroke="#98A2B3" stroke-linecap="round" stroke-linejoin="round"/>
</svg>
