<svg width="12" height="12" viewBox="0 0 12 12" fill="none" xmlns="http://www.w3.org/2000/svg">
<path d="M5 2L11.5 2M5 2C5 2.55228 4.55228 3 4 3C3.44772 3 3 2.55228 3 2M5 2C5 1.44772 4.55229 1 4 1C3.44772 1 3 1.44771 3 2M0.5 2H3M5 10H11.5M5 10C5 10.5523 4.55228 11 4 11C3.44772 11 3 10.5523 3 10M5 10C5 9.44772 4.55228 9 4 9C3.44772 9 3 9.44771 3 10M0.5 10L3 10M9 6L11.5 6M9 6C9 6.55228 8.55228 7 8 7C7.44772 7 7 6.55228 7 6M9 6C9 5.44772 8.55228 5 8 5C7.44772 5 7 5.44771 7 6M0.5 6H7" stroke="#D0D5DD" stroke-linecap="round" stroke-linejoin="round"/>
</svg>
