<svg width="18" height="18" viewBox="0 0 18 18" fill="none" xmlns="http://www.w3.org/2000/svg">
<path fill-rule="evenodd" clip-rule="evenodd" d="M13.7094 10.667H8.99984V7.33366H16.4998V7.36824H17.1711C17.2757 7.89616 17.3332 8.44158 17.3332 9.00033C17.3332 12.6492 15.0871 14.7659 14.6514 15.1242C13.1661 16.4957 11.1807 17.3337 8.99984 17.3337C4.39775 17.3337 0.666504 13.6024 0.666504 9.00033C0.666504 4.47015 4.28206 0.783806 8.78476 0.669714C8.85623 0.667903 8.92793 0.666992 8.99984 0.666992C11.1948 0.666992 13.1857 1.52241 14.674 2.90949L12.3169 5.26658C12.2066 5.1684 12.0919 5.07498 11.9732 4.98667C11.1423 4.36846 10.1151 4.00033 8.99984 4.00033C8.91641 4.00033 8.83346 4.00237 8.75104 4.00641C6.75933 4.10409 5.07665 5.36821 4.36525 7.12949L4.36248 7.12746C4.12861 7.70591 3.99984 8.33809 3.99984 9.00033C3.99984 9.59449 4.1035 10.1645 4.29371 10.6931L4.29859 10.6894C4.99192 12.6181 6.83234 14.0002 8.99984 14.0002C10.0863 14.0011 11.143 13.6454 12.0078 12.9877L12.01 12.9896C12.0101 12.9896 12.0101 12.9895 12.0102 12.9895L12.0078 12.9874L12.0065 12.9882C12.7887 12.3975 13.3808 11.5905 13.7094 10.667Z" fill="white"/>
</svg>
