<svg width="16" height="16" viewBox="0 0 16 16" fill="none" xmlns="http://www.w3.org/2000/svg">
<path fill-rule="evenodd" clip-rule="evenodd" d="M0.5 3.41667C0.5 1.22899 0.523424 0.5 3.41667 0.5C6.30991 0.5 6.33333 1.22899 6.33333 3.41667C6.33333 5.60434 6.34256 6.33333 3.41667 6.33333C0.490773 6.33333 0.5 5.60434 0.5 3.41667Z" stroke="#D0D5DD" stroke-linecap="round" stroke-linejoin="round"/>
<path fill-rule="evenodd" clip-rule="evenodd" d="M9.6665 3.41667C9.6665 1.22899 9.68993 0.5 12.5832 0.5C15.4764 0.5 15.4998 1.22899 15.4998 3.41667C15.4998 5.60434 15.5091 6.33333 12.5832 6.33333C9.65728 6.33333 9.6665 5.60434 9.6665 3.41667Z" stroke="#D0D5DD" stroke-linecap="round" stroke-linejoin="round"/>
<path fill-rule="evenodd" clip-rule="evenodd" d="M0.5 12.5837C0.5 10.396 0.523424 9.66699 3.41667 9.66699C6.30991 9.66699 6.33333 10.396 6.33333 12.5837C6.33333 14.7713 6.34256 15.5003 3.41667 15.5003C0.490773 15.5003 0.5 14.7713 0.5 12.5837Z" stroke="#D0D5DD" stroke-linecap="round" stroke-linejoin="round"/>
<path fill-rule="evenodd" clip-rule="evenodd" d="M9.6665 12.5837C9.6665 10.396 9.68993 9.66699 12.5832 9.66699C15.4764 9.66699 15.4998 10.396 15.4998 12.5837C15.4998 14.7713 15.5091 15.5003 12.5832 15.5003C9.65728 15.5003 9.6665 14.7713 9.6665 12.5837Z" stroke="#D0D5DD" stroke-linecap="round" stroke-linejoin="round"/>
</svg>
