<svg width="16" height="16" viewBox="0 0 16 16" fill="none" xmlns="http://www.w3.org/2000/svg">
<path d="M6.26667 2C6.64003 2 6.82672 2 6.96933 2.07266C7.09477 2.13658 7.19676 2.23856 7.26067 2.36401C7.33333 2.50661 7.33333 2.6933 7.33333 3.06667L7.33333 3.6C7.33333 3.97337 7.33333 4.16005 7.26067 4.30266C7.19676 4.4281 7.09477 4.53009 6.96933 4.594C6.82672 4.66667 6.64003 4.66667 6.26667 4.66667L3.06667 4.66667C2.6933 4.66667 2.50661 4.66667 2.36401 4.594C2.23856 4.53009 2.13658 4.4281 2.07266 4.30266C2 4.16005 2 3.97337 2 3.6L2 3.06667C2 2.6933 2 2.50661 2.07266 2.36401C2.13658 2.23856 2.23856 2.13658 2.36401 2.07266C2.50661 2 2.6933 2 3.06667 2L6.26667 2Z" fill="#98A2B3"/>
<path d="M12.9333 6.66667C13.3067 6.66667 13.4934 6.66667 13.636 6.73933C13.7614 6.80324 13.8634 6.90523 13.9273 7.03067C14 7.17328 14 7.35997 14 7.73333L14 8.26667C14 8.64003 14 8.82672 13.9273 8.96933C13.8634 9.09477 13.7614 9.19676 13.636 9.26067C13.4934 9.33333 13.3067 9.33333 12.9333 9.33333L3.06667 9.33333C2.6933 9.33333 2.50661 9.33333 2.36401 9.26067C2.23856 9.19675 2.13658 9.09477 2.07266 8.96933C2 8.82672 2 8.64003 2 8.26667L2 7.73333C2 7.35996 2 7.17328 2.07266 7.03067C2.13658 6.90523 2.23856 6.80324 2.36401 6.73933C2.50661 6.66667 2.6933 6.66667 3.06667 6.66667L12.9333 6.66667Z" fill="#98A2B3"/>
<path d="M8.93333 11.3333C9.3067 11.3333 9.49339 11.3333 9.63599 11.406C9.76143 11.4699 9.86342 11.5719 9.92734 11.6973C10 11.8399 10 12.0266 10 12.4L10 12.9333C10 13.3067 10 13.4934 9.92734 13.636C9.86342 13.7614 9.76143 13.8634 9.63599 13.9273C9.49339 14 9.3067 14 8.93333 14L3.06667 14C2.6933 14 2.50661 14 2.36401 13.9273C2.23856 13.8634 2.13658 13.7614 2.07266 13.636C2 13.4934 2 13.3067 2 12.9333L2 12.4C2 12.0266 2 11.8399 2.07266 11.6973C2.13658 11.5719 2.23856 11.4699 2.36401 11.406C2.50661 11.3333 2.6933 11.3333 3.06667 11.3333L8.93333 11.3333Z" fill="#98A2B3"/>
</svg>
