<svg width="32" height="32" viewBox="0 0 32 32" fill="none" xmlns="http://www.w3.org/2000/svg">
<path d="M13.8333 8.5C14.3 8.5 14.5334 8.5 14.7117 8.59083C14.8685 8.67072 14.9959 8.79821 15.0758 8.95501C15.1667 9.13327 15.1667 9.36662 15.1667 9.83333L15.1667 10.5C15.1667 10.9667 15.1667 11.2001 15.0758 11.3783C14.9959 11.5351 14.8685 11.6626 14.7117 11.7425C14.5334 11.8333 14.3 11.8333 13.8333 11.8333L9.83333 11.8333C9.36662 11.8333 9.13327 11.8333 8.95501 11.7425C8.79821 11.6626 8.67072 11.5351 8.59083 11.3783C8.5 11.2001 8.5 10.9667 8.5 10.5L8.5 9.83333C8.5 9.36662 8.5 9.13327 8.59083 8.95501C8.67072 8.79821 8.79821 8.67072 8.95501 8.59083C9.13327 8.5 9.36662 8.5 9.83333 8.5L13.8333 8.5Z" stroke="#D0D5DD" stroke-width="1.5" stroke-linecap="round" stroke-linejoin="round"/>
<path d="M22.1667 14.3333C22.6334 14.3333 22.8667 14.3333 23.045 14.4242C23.2018 14.5041 23.3293 14.6315 23.4092 14.7883C23.5 14.9666 23.5 15.2 23.5 15.6667L23.5 16.3333C23.5 16.8 23.5 17.0334 23.4092 17.2117C23.3293 17.3685 23.2018 17.4959 23.045 17.5758C22.8667 17.6667 22.6334 17.6667 22.1667 17.6667L9.83333 17.6667C9.36662 17.6667 9.13327 17.6667 8.95501 17.5758C8.79821 17.4959 8.67072 17.3685 8.59083 17.2117C8.5 17.0334 8.5 16.8 8.5 16.3333L8.5 15.6667C8.5 15.2 8.5 14.9666 8.59083 14.7883C8.67072 14.6315 8.79821 14.5041 8.95501 14.4242C9.13327 14.3333 9.36662 14.3333 9.83333 14.3333L22.1667 14.3333Z" stroke="#D0D5DD" stroke-width="1.5" stroke-linecap="round" stroke-linejoin="round"/>
<path d="M17.1667 20.1667C17.6334 20.1667 17.8667 20.1667 18.045 20.2575C18.2018 20.3374 18.3293 20.4649 18.4092 20.6217C18.5 20.7999 18.5 21.0333 18.5 21.5L18.5 22.1667C18.5 22.6334 18.5 22.8667 18.4092 23.045C18.3293 23.2018 18.2018 23.3293 18.045 23.4092C17.8667 23.5 17.6334 23.5 17.1667 23.5L9.83333 23.5C9.36662 23.5 9.13327 23.5 8.95501 23.4092C8.79821 23.3293 8.67072 23.2018 8.59083 23.045C8.5 22.8667 8.5 22.6334 8.5 22.1667L8.5 21.5C8.5 21.0333 8.5 20.7999 8.59083 20.6217C8.67072 20.4649 8.79821 20.3374 8.95501 20.2575C9.13327 20.1667 9.36662 20.1667 9.83333 20.1667L17.1667 20.1667Z" stroke="#D0D5DD" stroke-width="1.5" stroke-linecap="round" stroke-linejoin="round"/>
</svg>
