<svg width="32" height="32" viewBox="0 0 32 32" fill="none" xmlns="http://www.w3.org/2000/svg">
<path d="M10.1667 19.3335V22.6668M11 9.3335V12.6668M11.8333 21.0002H8.5M12.6667 11.0002H9.33333M16.8333 9.3335L18.294 13.0371C18.4506 13.4342 18.5289 13.6327 18.6488 13.8001C18.7551 13.9485 18.885 14.0784 19.0334 14.1847C19.2008 14.3046 19.3993 14.3829 19.7964 14.5395L23.5 16.0002L19.7964 17.4609C19.3993 17.6175 19.2008 17.6957 19.0334 17.8156C18.885 17.9219 18.7551 18.0518 18.6488 18.2002C18.5289 18.3676 18.4506 18.5661 18.294 18.9632L16.8333 22.6668L15.3726 18.9632C15.216 18.5661 15.1377 18.3676 15.0179 18.2002C14.9116 18.0518 14.7817 17.9219 14.6333 17.8156C14.4659 17.6957 14.2674 17.6175 13.8703 17.4609L10.1667 16.0002L13.8703 14.5395C14.2674 14.3829 14.4659 14.3046 14.6333 14.1847C14.7817 14.0784 14.9116 13.9485 15.0179 13.8001C15.1377 13.6327 15.216 13.4342 15.3726 13.0371L16.8333 9.3335Z" stroke="#D0D5DD" stroke-width="1.5" stroke-linecap="round" stroke-linejoin="round"/>
</svg>
