<svg width="32" height="32" viewBox="0 0 32 32" fill="none" xmlns="http://www.w3.org/2000/svg">
<path d="M8.5 18.1667C8.5 17.7 8.5 17.4666 8.59083 17.2883C8.67072 17.1315 8.79821 17.0041 8.95501 16.9242C9.13327 16.8333 9.36662 16.8333 9.83333 16.8333H10.5C10.9667 16.8333 11.2001 16.8333 11.3783 16.9242C11.5351 17.0041 11.6626 17.1315 11.7425 17.2883C11.8333 17.4666 11.8333 17.7 11.8333 18.1667V22.1667C11.8333 22.6334 11.8333 22.8667 11.7425 23.045C11.6626 23.2018 11.5351 23.3293 11.3783 23.4092C11.2001 23.5 10.9667 23.5 10.5 23.5H9.83333C9.36662 23.5 9.13327 23.5 8.95501 23.4092C8.79821 23.3293 8.67072 23.2018 8.59083 23.045C8.5 22.8667 8.5 22.6334 8.5 22.1667V18.1667Z" stroke="#D0D5DD" stroke-width="1.5" stroke-linecap="round" stroke-linejoin="round"/>
<path d="M14.3333 9.83333C14.3333 9.36662 14.3333 9.13327 14.4242 8.95501C14.5041 8.79821 14.6315 8.67072 14.7883 8.59083C14.9666 8.5 15.2 8.5 15.6667 8.5H16.3333C16.8 8.5 17.0334 8.5 17.2117 8.59083C17.3685 8.67072 17.4959 8.79821 17.5758 8.95501C17.6667 9.13327 17.6667 9.36662 17.6667 9.83333V22.1667C17.6667 22.6334 17.6667 22.8667 17.5758 23.045C17.4959 23.2018 17.3685 23.3293 17.2117 23.4092C17.0334 23.5 16.8 23.5 16.3333 23.5H15.6667C15.2 23.5 14.9666 23.5 14.7883 23.4092C14.6315 23.3293 14.5041 23.2018 14.4242 23.045C14.3333 22.8667 14.3333 22.6334 14.3333 22.1667V9.83333Z" stroke="#D0D5DD" stroke-width="1.5" stroke-linecap="round" stroke-linejoin="round"/>
<path d="M20.1667 14.8333C20.1667 14.3666 20.1667 14.1333 20.2575 13.955C20.3374 13.7982 20.4649 13.6707 20.6217 13.5908C20.7999 13.5 21.0333 13.5 21.5 13.5H22.1667C22.6334 13.5 22.8667 13.5 23.045 13.5908C23.2018 13.6707 23.3293 13.7982 23.4092 13.955C23.5 14.1333 23.5 14.3666 23.5 14.8333V22.1667C23.5 22.6334 23.5 22.8667 23.4092 23.045C23.3293 23.2018 23.2018 23.3293 23.045 23.4092C22.8667 23.5 22.6334 23.5 22.1667 23.5H21.5C21.0333 23.5 20.7999 23.5 20.6217 23.4092C20.4649 23.3293 20.3374 23.2018 20.2575 23.045C20.1667 22.8667 20.1667 22.6334 20.1667 22.1667V14.8333Z" stroke="#D0D5DD" stroke-width="1.5" stroke-linecap="round" stroke-linejoin="round"/>
</svg>
