<svg width="32" height="32" viewBox="0 0 32 32" fill="none" xmlns="http://www.w3.org/2000/svg">
<path d="M16.8332 8.5H12.8332C11.8997 8.5 11.433 8.5 11.0765 8.68166C10.7629 8.84144 10.5079 9.09641 10.3482 9.41002C10.1665 9.76654 10.1665 10.2332 10.1665 11.1667V20.8333C10.1665 21.7668 10.1665 22.2335 10.3482 22.59C10.5079 22.9036 10.7629 23.1586 11.0765 23.3183C11.433 23.5 11.8997 23.5 12.8332 23.5H13.4998M16.8332 8.5L21.8332 13.5M16.8332 8.5V12.1667C16.8332 12.6334 16.8332 12.8667 16.924 13.045C17.0039 13.2018 17.1314 13.3293 17.2882 13.4092C17.4664 13.5 17.6998 13.5 18.1665 13.5H21.8332M21.8332 13.5V15.1667M18.4998 18.5C17.1191 18.5 15.9998 19.6193 15.9998 21C15.9998 22.3807 17.1191 23.5 18.4998 23.5M21.8332 23.5C23.2139 23.5 24.3332 22.3807 24.3332 21C24.3332 19.6193 23.2139 18.5 21.8332 18.5M18.4998 21H21.8332" stroke="#D0D5DD" stroke-width="1.5" stroke-linecap="round" stroke-linejoin="round"/>
</svg>
