<svg width="32" height="32" viewBox="0 0 32 32" fill="none" xmlns="http://www.w3.org/2000/svg">
<path d="M13.4998 20.1667H18.4998M13.4998 16.8333H18.4998M13.4998 13.5H14.3332M16.8332 8.5H12.8332C11.8997 8.5 11.433 8.5 11.0765 8.68166C10.7629 8.84144 10.5079 9.09641 10.3482 9.41002C10.1665 9.76654 10.1665 10.2332 10.1665 11.1667V20.8333C10.1665 21.7668 10.1665 22.2335 10.3482 22.59C10.5079 22.9036 10.7629 23.1586 11.0765 23.3183C11.433 23.5 11.8997 23.5 12.8332 23.5H19.1665C20.0999 23.5 20.5666 23.5 20.9232 23.3183C21.2368 23.1586 21.4917 22.9036 21.6515 22.59C21.8332 22.2335 21.8332 21.7668 21.8332 20.8333V13.5M16.8332 8.5L21.8332 13.5M16.8332 8.5V12.1667C16.8332 12.6334 16.8332 12.8667 16.924 13.045C17.0039 13.2018 17.1314 13.3293 17.2882 13.4092C17.4664 13.5 17.6998 13.5 18.1665 13.5H21.8332" stroke="#D0D5DD" stroke-width="1.5" stroke-linecap="round" stroke-linejoin="round"/>
</svg>
