<svg width="32" height="32" viewBox="0 0 32 32" fill="none" xmlns="http://www.w3.org/2000/svg">
<path d="M18.705 16.8335V18.5002M18.705 21.0002H18.7134M12.6668 12.6668V16.0002M10.5835 22.6004C10.4557 22.574 10.3451 22.537 10.2435 22.4852C9.92991 22.3254 9.67494 22.0704 9.51515 21.7568C9.3335 21.4003 9.3335 20.9336 9.3335 20.0002V12.0002C9.3335 11.0667 9.3335 10.6 9.51515 10.2435C9.67494 9.92991 9.92991 9.67494 10.2435 9.51515C10.6 9.3335 11.0667 9.3335 12.0002 9.3335H20.0002C20.9336 9.3335 21.4003 9.3335 21.7568 9.51515C22.0704 9.67494 22.3254 9.92991 22.4852 10.2435C22.6668 10.6 22.6668 11.0667 22.6668 12.0002V12.2502M17.1865 23.5002H20.2237C21.6524 23.5002 22.3667 23.5002 22.7969 23.1993C23.1726 22.9365 23.4235 22.5306 23.4905 22.0771C23.5672 21.5578 23.2477 20.9188 22.6088 19.641L21.0902 16.6038C20.3226 15.0684 19.9387 14.3008 19.4193 14.0544C18.9673 13.84 18.4429 13.84 17.9909 14.0544C17.4715 14.3008 17.0876 15.0684 16.32 16.6038L14.8014 19.641C14.1624 20.9188 13.843 21.5578 13.9197 22.0771C13.9867 22.5306 14.2376 22.9365 14.6132 23.1993C15.0435 23.5002 15.7578 23.5002 17.1865 23.5002Z" stroke="#D0D5DD" stroke-width="1.5" stroke-linecap="round" stroke-linejoin="round"/>
</svg>
