<svg width="32" height="32" viewBox="0 0 32 32" fill="none" xmlns="http://www.w3.org/2000/svg">
<path d="M16.8333 22.6668V21.0002C16.8333 18.699 14.9679 16.8335 12.6667 16.8335C10.3655 16.8335 8.5 18.699 8.5 21.0002V22.6668H16.8333ZM16.8333 22.6668H23.5V21.8335C23.5 19.3789 21.6345 17.6668 19.3333 17.6668C18.1556 17.6668 17.0919 18.1881 16.3341 19.0261M15.1667 11.8335C15.1667 13.2142 14.0474 14.3335 12.6667 14.3335C11.286 14.3335 10.1667 13.2142 10.1667 11.8335C10.1667 10.4528 11.286 9.3335 12.6667 9.3335C14.0474 9.3335 15.1667 10.4528 15.1667 11.8335ZM21 13.5002C21 14.4206 20.2538 15.1668 19.3333 15.1668C18.4129 15.1668 17.6667 14.4206 17.6667 13.5002C17.6667 12.5797 18.4129 11.8335 19.3333 11.8335C20.2538 11.8335 21 12.5797 21 13.5002Z" stroke="#D0D5DD" stroke-width="1.5" stroke-linecap="round" stroke-linejoin="round"/>
</svg>
