<svg width="32" height="32" viewBox="0 0 32 32" fill="none" xmlns="http://www.w3.org/2000/svg">
<path d="M11.8333 17.668H20.1667M11.8333 17.668V15.668C11.8333 15.2013 11.8333 14.9679 11.9242 14.7896C12.0041 14.6328 12.1315 14.5054 12.2883 14.4255C12.4666 14.3346 12.7 14.3346 13.1667 14.3346H18.8333C19.3 14.3346 19.5334 14.3346 19.7117 14.4255C19.8685 14.5054 19.9959 14.6328 20.0758 14.7896C20.1667 14.9679 20.1667 15.2013 20.1667 15.668V17.668M11.8333 17.668V21.0013V23.5013M20.1667 17.668V21.0013V23.5013M21.2889 11.1457L17.7889 9.39573C17.1329 9.06777 16.805 8.9038 16.461 8.83926C16.1563 8.7821 15.8437 8.7821 15.539 8.83926C15.195 8.9038 14.8671 9.06777 14.2111 9.39573L10.7111 11.1457C9.90849 11.5471 9.50716 11.7477 9.21395 12.0471C8.95466 12.3118 8.75747 12.6309 8.63664 12.9812C8.5 13.3773 8.5 13.826 8.5 14.7234V22.168C8.5 22.6347 8.5 22.868 8.59083 23.0463C8.67072 23.2031 8.79821 23.3306 8.95501 23.4105C9.13327 23.5013 9.36662 23.5013 9.83333 23.5013H22.1667C22.6334 23.5013 22.8667 23.5013 23.045 23.4105C23.2018 23.3306 23.3293 23.2031 23.4092 23.0463C23.5 22.868 23.5 22.6347 23.5 22.168V14.7234C23.5 13.826 23.5 13.3773 23.3634 12.9812C23.2425 12.6309 23.0453 12.3118 22.786 12.0471C22.4928 11.7477 22.0915 11.5471 21.2889 11.1457Z" stroke="#D0D5DD" stroke-width="1.5" stroke-linecap="round" stroke-linejoin="round"/>
</svg>
