<svg width="16" height="16" viewBox="0 0 16 16" fill="none" xmlns="http://www.w3.org/2000/svg">
<circle cx="8" cy="8" r="8" fill="#F9FAFB"/>
<path d="M8.00006 3.73438C8.22098 3.73438 8.40006 3.91346 8.40006 4.13437V4.93437C8.40006 5.15529 8.22098 5.33437 8.00006 5.33437C7.77915 5.33437 7.60006 5.15529 7.60006 4.93437V4.13437C7.60006 3.91346 7.77915 3.73438 8.00006 3.73438Z" fill="#709FFF"/>
<path d="M8.00006 10.6677C8.22098 10.6677 8.40006 10.8468 8.40006 11.0677V11.8677C8.40006 12.0886 8.22098 12.2677 8.00006 12.2677C7.77915 12.2677 7.60006 12.0886 7.60006 11.8677V11.0677C7.60006 10.8468 7.77915 10.6677 8.00006 10.6677Z" fill="#709FFF"/>
<path d="M8.00006 6.40104C7.11641 6.40104 6.40006 7.11739 6.40006 8.00104C6.40006 8.8847 7.11641 9.60104 8.00006 9.60104C8.88372 9.60104 9.60006 8.8847 9.60006 8.00104C9.60006 7.11739 8.88372 6.40104 8.00006 6.40104Z" fill="#709FFF"/>
<path d="M11.017 5.54976C11.1732 5.39356 11.1732 5.14029 11.017 4.98408C10.8608 4.82787 10.6075 4.82787 10.4513 4.98408L9.88565 5.54976C9.72944 5.70597 9.72944 5.95924 9.88565 6.11545C10.0419 6.27166 10.2951 6.27166 10.4513 6.11545L11.017 5.54976Z" fill="#709FFF"/>
<path d="M6.11442 10.4524C6.27062 10.2962 6.27063 10.0429 6.11442 9.88669C5.95821 9.73048 5.70494 9.73048 5.54873 9.88669L4.98304 10.4524C4.82684 10.6086 4.82683 10.8618 4.98304 11.0181C5.13925 11.1743 5.39252 11.1743 5.54873 11.0181L6.11442 10.4524Z" fill="#709FFF"/>
<path d="M12.2667 8.00104C12.2667 8.22196 12.0876 8.40104 11.8667 8.40104H11.0667C10.8458 8.40104 10.6667 8.22196 10.6667 8.00104C10.6667 7.78013 10.8458 7.60104 11.0667 7.60104H11.8667C12.0876 7.60104 12.2667 7.78013 12.2667 8.00104Z" fill="#709FFF"/>
<path d="M5.3334 8.00104C5.3334 8.22196 5.15431 8.40104 4.9334 8.40104H4.1334C3.91248 8.40104 3.7334 8.22196 3.7334 8.00104C3.7334 7.78013 3.91248 7.60104 4.1334 7.60104H4.9334C5.15431 7.60104 5.3334 7.78013 5.3334 8.00104Z" fill="#709FFF"/>
<path d="M10.4513 11.018C10.6075 11.1742 10.8608 11.1742 11.017 11.018C11.1732 10.8618 11.1732 10.6085 11.017 10.4523L10.4513 9.88663C10.2951 9.73042 10.0418 9.73042 9.88559 9.88663C9.72938 10.0428 9.72938 10.2961 9.88559 10.4523L10.4513 11.018Z" fill="#709FFF"/>
<path d="M5.54867 6.11539C5.70488 6.2716 5.95815 6.2716 6.11436 6.11539C6.27057 5.95918 6.27056 5.70592 6.11436 5.54971L5.54867 4.98402C5.39246 4.82781 5.13919 4.82781 4.98298 4.98402C4.82677 5.14023 4.82678 5.3935 4.98298 5.54971L5.54867 6.11539Z" fill="#709FFF"/>
</svg>
