<svg width="16" height="12" viewBox="0 0 16 12" fill="none" xmlns="http://www.w3.org/2000/svg">
<path fill-rule="evenodd" clip-rule="evenodd" d="M0.1875 1.625C0.1875 1.10723 0.607233 0.6875 1.125 0.6875C1.64277 0.6875 2.0625 1.10723 2.0625 1.625C2.0625 2.14277 1.64277 2.5625 1.125 2.5625C0.607233 2.5625 0.1875 2.14277 0.1875 1.625ZM4.25 1.625C4.25 1.27982 4.52982 1 4.875 1H14.875C15.2202 1 15.5 1.27982 15.5 1.625C15.5 1.97018 15.2202 2.25 14.875 2.25H4.875C4.52982 2.25 4.25 1.97018 4.25 1.625ZM0.1875 6C0.1875 5.48223 0.607233 5.0625 1.125 5.0625C1.64277 5.0625 2.0625 5.48223 2.0625 6C2.0625 6.51777 1.64277 6.9375 1.125 6.9375C0.607233 6.9375 0.1875 6.51777 0.1875 6ZM4.25 6C4.25 5.65482 4.52982 5.375 4.875 5.375H14.875C15.2202 5.375 15.5 5.65482 15.5 6C15.5 6.34518 15.2202 6.625 14.875 6.625H4.875C4.52982 6.625 4.25 6.34518 4.25 6ZM0.1875 10.375C0.1875 9.85723 0.607233 9.4375 1.125 9.4375C1.64277 9.4375 2.0625 9.85723 2.0625 10.375C2.0625 10.8928 1.64277 11.3125 1.125 11.3125C0.607233 11.3125 0.1875 10.8928 0.1875 10.375ZM4.25 10.375C4.25 10.0298 4.52982 9.75 4.875 9.75H14.875C15.2202 9.75 15.5 10.0298 15.5 10.375C15.5 10.7202 15.2202 11 14.875 11H4.875C4.52982 11 4.25 10.7202 4.25 10.375Z" fill="#F2F4F7"/>
</svg>
