<svg width="71" height="16" viewBox="0 0 71 16" fill="none" xmlns="http://www.w3.org/2000/svg">
<path d="M6.26667 2C6.64003 2 6.82672 2 6.96933 2.07266C7.09477 2.13658 7.19676 2.23856 7.26067 2.36401C7.33333 2.50661 7.33333 2.6933 7.33333 3.06667L7.33333 3.6C7.33333 3.97337 7.33333 4.16005 7.26067 4.30266C7.19676 4.4281 7.09477 4.53009 6.96933 4.594C6.82672 4.66667 6.64003 4.66667 6.26667 4.66667L3.06667 4.66667C2.6933 4.66667 2.50661 4.66667 2.36401 4.594C2.23856 4.53009 2.13658 4.4281 2.07266 4.30266C2 4.16005 2 3.97337 2 3.6L2 3.06667C2 2.6933 2 2.50661 2.07266 2.36401C2.13658 2.23856 2.23856 2.13658 2.36401 2.07266C2.50661 2 2.6933 2 3.06667 2L6.26667 2Z" fill="#4480F7"/>
<path d="M12.9333 6.66667C13.3067 6.66667 13.4934 6.66667 13.636 6.73933C13.7614 6.80324 13.8634 6.90523 13.9273 7.03067C14 7.17328 14 7.35997 14 7.73333L14 8.26667C14 8.64003 14 8.82672 13.9273 8.96933C13.8634 9.09477 13.7614 9.19676 13.636 9.26067C13.4934 9.33333 13.3067 9.33333 12.9333 9.33333L3.06667 9.33333C2.6933 9.33333 2.50661 9.33333 2.36401 9.26067C2.23856 9.19675 2.13658 9.09477 2.07266 8.96933C2 8.82672 2 8.64003 2 8.26667L2 7.73333C2 7.35996 2 7.17328 2.07266 7.03067C2.13658 6.90523 2.23856 6.80324 2.36401 6.73933C2.50661 6.66667 2.6933 6.66667 3.06667 6.66667L12.9333 6.66667Z" fill="#4480F7"/>
<path d="M8.93333 11.3333C9.3067 11.3333 9.49339 11.3333 9.63599 11.406C9.76143 11.4699 9.86342 11.5719 9.92734 11.6973C10 11.8399 10 12.0266 10 12.4L10 12.9333C10 13.3067 10 13.4934 9.92734 13.636C9.86342 13.7614 9.76143 13.8634 9.63599 13.9273C9.49339 14 9.3067 14 8.93333 14L3.06667 14C2.6933 14 2.50661 14 2.36401 13.9273C2.23856 13.8634 2.13658 13.7614 2.07266 13.636C2 13.4934 2 13.3067 2 12.9333L2 12.4C2 12.0266 2 11.8399 2.07266 11.6973C2.13658 11.5719 2.23856 11.4699 2.36401 11.406C2.50661 11.3333 2.6933 11.3333 3.06667 11.3333L8.93333 11.3333Z" fill="#4480F7"/>
<g clip-path="url(#clip0_2561_105837)">
<path d="M48.2263 2.00567C47.5505 1.99837 46.8753 2.00445 46.1996 2.00324C45.9677 2.00324 45.8671 2.16552 45.8347 2.39041C45.8147 2.52899 45.8255 2.67304 45.8249 2.81527C45.8249 4.55726 45.8249 6.29863 45.8249 8.04062C45.8093 8.0473 45.793 8.05399 45.7774 8.06067C45.4579 7.53431 45.127 7.01585 44.8205 6.47976C44.0372 5.11036 43.1895 3.78838 42.4197 2.40804C42.2802 2.15762 42.0537 1.99351 41.7548 2.0002C41.2417 2.01235 40.7282 2.0008 40.2146 2.00567C40.1324 2.00628 40.0556 2.01235 39.9675 2.06827C39.7178 2.22752 39.7918 2.48097 39.7918 2.70283C39.787 6.02451 39.7886 9.3468 39.787 12.6685C39.787 12.787 39.7816 12.9049 39.7621 13.0259C39.6799 13.5346 39.9189 13.844 40.3714 13.8446C40.939 13.8446 41.5066 13.8464 42.0737 13.8446C42.451 13.8434 42.5911 13.6829 42.5911 13.2562C42.5911 11.5446 42.5911 9.83305 42.5911 8.12146C42.5911 8.00658 42.5911 7.8917 42.5911 7.72212C42.6522 7.80539 42.6765 7.83275 42.6954 7.86435C43.3841 9.0356 44.0734 10.2062 44.7594 11.3793C45.1265 12.0072 45.5276 12.6071 45.8612 13.2635C46.0423 13.6209 46.3196 13.9352 46.7975 13.8592C47.204 13.7948 47.6246 13.8458 48.0387 13.844C48.502 13.8416 48.6177 13.7091 48.6177 13.1827C48.6177 9.7595 48.6188 6.33632 48.6177 2.91313C48.6177 2.732 48.6085 2.55027 48.5885 2.37035C48.5631 2.13756 48.429 2.0081 48.2263 2.00628V2.00567Z" fill="#2952CC"/>
<path d="M32.8297 2.50964C32.8081 2.14921 32.6757 2.0082 32.3519 2.00577C31.7572 2.00212 31.1631 2.00273 30.5684 2.00394C30.1727 2.00455 30.0413 2.15468 30.0413 2.60689C30.0408 4.02491 30.0413 5.44233 30.0413 6.86035C30.0413 7.25968 30.0413 7.65901 30.0413 8.10758C29.7116 7.72526 29.544 7.28217 29.2991 6.90046C28.8271 6.16562 28.3925 5.40039 27.9427 4.64792C27.4756 3.86567 27.0329 3.06457 26.528 2.3115C26.4025 2.10788 26.2258 2.00455 26.0095 2.00334C25.5906 2.0009 25.1716 2.01002 24.7521 2.01428C24.6802 2.01428 24.6088 2.01306 24.5369 2.01245C24.1326 2.0003 24.0234 2.08843 24.0179 2.43184C24.0174 2.61297 24.0169 2.79349 24.0158 2.97462C24.0158 3.52286 24.0158 4.07111 24.0158 4.61935C24.012 4.65947 24.0055 4.69958 24.0055 4.7397C24.0055 7.63531 24.0055 10.5303 24.0088 13.4259C24.0088 13.4879 23.9709 13.57 24.0525 13.6113C24.0423 13.7402 24.1585 13.7335 24.2093 13.7967C24.218 13.8277 24.2272 13.8587 24.2655 13.8356C24.2472 13.8228 24.2288 13.8101 24.2104 13.7973C24.2288 13.8101 24.2472 13.8228 24.2655 13.835C24.9321 13.838 25.5981 13.8411 26.2647 13.8429C26.6609 13.8441 26.8069 13.6782 26.8069 13.2284C26.8069 11.6487 26.8069 10.069 26.8069 8.48928C26.8069 8.26196 26.8069 8.03403 26.8069 7.80671C27.0507 8.24555 27.3697 8.6072 27.5892 9.04482C27.9038 9.67147 28.2882 10.2489 28.6368 10.85C29.1234 11.6894 29.6348 12.513 30.13 13.3475C30.2992 13.6332 30.5149 13.8806 30.8879 13.8538C31.3366 13.8216 31.788 13.8441 32.2383 13.8441C32.7351 13.8441 32.8341 13.7329 32.8341 13.1719C32.8341 9.759 32.8341 6.34675 32.8341 2.93389C32.8341 2.79227 32.8384 2.65005 32.8297 2.50903V2.50964ZM26.0257 2.49019H26.3744C26.2582 2.49019 26.1425 2.49019 26.0257 2.49019Z" fill="#2952CC"/>
<path d="M70.2617 13.3261C70.1217 12.8046 69.9708 12.2868 69.7703 11.789C69.687 11.4358 69.5886 11.0882 69.4567 10.7539C69.167 9.79476 68.8794 8.83563 68.5869 7.87772C68.1377 6.40621 67.6857 4.93592 67.2327 3.46624C67.137 3.15564 67.0359 2.84748 66.9316 2.54054C66.8013 2.15701 66.5521 1.99351 66.185 2.0002C65.4557 2.01296 64.7259 2.00931 63.9967 2.00141C63.3577 1.99412 63.2647 2.13999 63.0333 2.86268C62.7652 3.69963 62.5489 4.55847 62.2581 5.38448C62.0316 6.02816 61.8791 6.69796 61.6418 7.3392C61.4629 7.8218 61.3461 8.34391 61.1937 8.84536C60.7487 10.3108 60.2979 11.7738 59.8476 13.2374C59.7427 13.5778 59.8773 13.8361 60.1957 13.8422C60.8347 13.8543 61.4742 13.8452 62.1138 13.844C62.3408 13.844 62.5657 13.7467 62.6214 13.5115C62.7171 13.1079 62.8733 12.7293 62.9641 12.3269C63.0128 12.1093 63.0955 12.0139 63.3096 12.0163C64.4713 12.0279 65.6331 12.0285 66.7948 12.0157C66.9862 12.0133 67.0635 12.1093 67.1159 12.2764C67.2181 12.6022 67.3327 12.9244 67.4122 13.2568C67.5522 13.8403 67.7133 13.8878 68.2058 13.8239C68.262 13.8531 68.3188 13.8495 68.3766 13.8294C68.4658 13.8306 68.555 13.8312 68.6442 13.8324C68.8075 13.8318 68.9702 13.8312 69.1335 13.8306C69.3929 13.8355 69.6524 13.8501 69.9114 13.8434C70.2044 13.8361 70.3444 13.6325 70.2622 13.3267L70.2617 13.3261ZM66.0753 9.39178C65.4017 9.3857 64.7276 9.38631 64.054 9.39056C63.9156 9.39117 63.8529 9.36382 63.9069 9.18573C64.2859 7.93729 64.66 6.68763 65.0552 5.37233C65.4541 6.69857 65.8298 7.94762 66.2066 9.19546C66.2499 9.33951 66.2175 9.39299 66.0758 9.39117L66.0753 9.39178Z" fill="#2952CC"/>
<path d="M58.4776 2.00323C56.6136 2.00323 54.7496 2.00202 52.8856 2.00445C52.265 2.00506 51.6438 2.01539 51.0232 2.02147C50.767 2.00323 50.6648 2.2026 50.6637 2.42627C50.6599 3.01828 50.6762 3.61028 50.6475 4.20229C50.6367 4.42718 50.6875 4.61743 50.9173 4.67334C51.0216 4.75601 51.1416 4.72805 51.2557 4.72805C52.8223 4.72987 54.3895 4.73473 55.9562 4.72319C56.1746 4.72136 56.2189 4.79369 56.2173 5.02527C56.2081 6.4834 56.2124 7.94093 56.2124 9.39907C56.2124 10.0038 56.073 10.5314 55.6254 10.9301C55.3972 11.1332 55.1404 11.2085 54.875 11.2511C54.3533 11.3349 53.8495 11.29 53.3797 10.9587C53.0505 10.7265 52.9342 10.3612 52.8045 9.99472C52.7331 9.79293 52.6423 9.66772 52.4169 9.65314C51.7249 9.60877 51.0335 9.64706 50.3421 9.63429C50.1756 9.63125 50.0199 9.7279 50.0074 9.93759C49.9896 10.2415 50.0426 10.5418 50.0966 10.8408C50.2345 11.603 50.6075 12.1889 51.0978 12.7274C51.7238 13.4149 52.505 13.6787 53.311 13.906C53.8516 14.0585 54.4025 13.9807 54.9496 13.9747C55.4021 13.9692 55.8411 13.8792 56.2757 13.7218C56.8287 13.5212 57.3153 13.2021 57.7537 12.787C58.1154 12.4448 58.437 12.0364 58.6306 11.5623C58.8798 10.952 59.0003 10.284 59.0003 9.60086C59.0003 7.26201 59.0003 4.92315 58.9982 2.5843C58.9982 2.15579 58.8581 2.00323 58.4781 2.00323H58.4776ZM51.1065 3.27964C51.1038 3.29058 51.0951 3.30456 51.0903 3.31671C51.0946 3.30456 51.1038 3.29118 51.1065 3.28024V3.27964Z" fill="#2952CC"/>
<path d="M37.2086 2.00505C36.6053 2.00322 36.0025 2.00201 35.3992 2.00383C35.0138 2.00444 34.9143 2.11749 34.9143 2.55329C34.9138 4.33418 34.9143 6.11567 34.9143 7.89655C34.9143 9.70783 34.9138 11.5197 34.9148 13.331C34.9148 13.7127 35.0322 13.844 35.37 13.8446C35.955 13.8464 36.5399 13.8434 37.1254 13.8446C37.5654 13.8458 37.7157 13.678 37.7157 13.1754C37.7157 9.76496 37.7162 6.35454 37.7168 2.94411C37.7168 2.81283 37.7211 2.68093 37.7157 2.54965C37.7006 2.16672 37.5503 2.00626 37.2092 2.00505H37.2086Z" fill="#2952CC"/>
</g>
<defs>
<clipPath id="clip0_2561_105837">
<rect width="46.2857" height="12" fill="white" transform="translate(24 2)"/>
</clipPath>
</defs>
</svg>
