    <svg
      width="109"
      height="109"
      viewBox="0 0 109 109"
      fill="none"
      xmlns="http://www.w3.org/2000/svg"
    >
      <circle cx="54.5" cy="54.5" r="54.5" fill="#ECECEC" />
      <path
        d="M85 80.0214H25.334V46.6738L84.6666 46.7042L85 80.0214Z"
        fill="#0375C5"
      />
      <path
        d="M84.6267 46.8404H25.3711L49.6263 27.8061C52.7631 25.398 57.1679 25.398 60.3048 27.8061L84.6267 46.8404Z"
        fill="#0492F6"
      />
      <path
        d="M72.9583 79.2192H37.0374C35.1651 79.2192 33.6475 77.7015 33.6475 75.8293V44.9041C33.6475 43.0318 35.1651 41.5142 37.0374 41.5142H72.9583C74.8305 41.5142 76.348 43.0318 76.348 44.9041V75.8293C76.348 77.7015 74.8305 79.2192 72.9583 79.2192Z"
        fill="#E7F0FB"
      />
      <path
        d="M73.0632 45.0732V46.4227H37.7261V45.0732H73.0632Z"
        fill="#0492F6"
      />
      <path
        d="M73.0632 48.8687V50.2181H37.7261V48.8687H73.0632Z"
        fill="#0492F6"
      />
      <path
        d="M73.0632 52.6655V54.015H37.7261V52.6655H73.0632Z"
        fill="#0492F6"
      />
      <path
        d="M73.0632 56.4609V57.8104H37.7261V56.4609H73.0632Z"
        fill="#0492F6"
      />
      <path
        d="M73.0632 60.2563V61.6058H37.7261V60.2563H73.0632Z"
        fill="#0492F6"
      />
      <path
        d="M73.0632 64.0527V65.4022H37.7261V64.0527H73.0632Z"
        fill="#0492F6"
      />
      <path
        d="M73.0632 67.8481V69.1976H37.7261V67.8481H73.0632Z"
        fill="#0492F6"
      />
      <path
        d="M73.0632 71.644V72.9935H37.7261V71.644H73.0632Z"
        fill="#0492F6"
      />
      <path
        d="M73.0632 75.4404V76.7899H37.7261V75.4404H73.0632Z"
        fill="#0492F6"
      />
      <path
        d="M84.9997 48.4758V82.4467C84.9997 85.1164 82.864 87.3188 80.1277 87.3188H29.8721C27.2024 87.3188 25 85.1831 25 82.4467V48.4758C25 47.8752 25.0667 47.2745 25.3337 46.6738L49.6273 65.6949C52.7641 68.0975 57.1689 68.0975 60.3057 65.6949L84.666 46.6738C84.8663 47.2078 84.9997 47.8752 84.9997 48.4758Z"
        fill="#0492F6"
      />
    </svg>