<svg width="15" height="14" viewBox="0 0 15 14" fill="none" xmlns="http://www.w3.org/2000/svg">
<path d="M8.28613 12.9999V7.99991C8.28613 7.72376 8.50999 7.49991 8.78613 7.49991H10.7861C11.0623 7.49991 11.2861 7.72376 11.2861 7.99991V12.9999M8.28613 12.9999H0.860052M8.28613 12.9999H11.2861M11.2861 12.9999H13.7122M12.7861 12.9999V5.23242M1.78613 12.9999V5.23259M1.78613 5.23259C2.55099 5.67468 3.54598 5.56854 4.20035 4.91418C4.23009 4.88443 4.25871 4.85398 4.28619 4.82288C4.65266 5.23806 5.18882 5.49991 5.78613 5.49991C6.38348 5.49991 6.91966 5.23803 7.28613 4.82282C7.65261 5.23803 8.18879 5.49991 8.78613 5.49991C9.38341 5.49991 9.91954 5.23809 10.286 4.82296C10.3135 4.85401 10.342 4.88442 10.3717 4.91412C11.0261 5.56854 12.0212 5.67464 12.7861 5.23242M1.78613 5.23259C1.63806 5.147 1.4986 5.04086 1.37192 4.91418C0.590871 4.13313 0.590871 2.8668 1.37192 2.08575L2.16478 1.29289C2.35231 1.10536 2.60667 1 2.87188 1H11.7003C11.9655 1 12.2198 1.10536 12.4074 1.29289L13.2002 2.08569C13.9812 2.86674 13.9812 4.13307 13.2002 4.91412C13.0735 5.04075 12.9341 5.14685 12.7861 5.23242M3.78613 10.9999H6.28613C6.56228 10.9999 6.78613 10.776 6.78613 10.4999V7.99991C6.78613 7.72376 6.56228 7.49991 6.28613 7.49991H3.78613C3.50999 7.49991 3.28613 7.72376 3.28613 7.99991V10.4999C3.28613 10.776 3.50999 10.9999 3.78613 10.9999Z" />
</svg>
