<svg width="16" height="16" viewBox="0 0 16 16" fill="none" xmlns="http://www.w3.org/2000/svg">
<path fill-rule="evenodd" clip-rule="evenodd" d="M14.3996 8.0001C14.3996 11.5347 11.5342 14.4001 7.99961 14.4001C4.46499 14.4001 1.59961 11.5347 1.59961 8.0001C1.59961 4.46548 4.46499 1.6001 7.99961 1.6001C11.5342 1.6001 14.3996 4.46548 14.3996 8.0001ZM7.15108 5.55155C6.91677 5.78586 6.53687 5.78586 6.30255 5.55155C6.06824 5.31723 6.06824 4.93733 6.30255 4.70302C7.23981 3.76576 8.75941 3.76576 9.69667 4.70302C10.6339 5.64028 10.6339 7.15987 9.69667 8.09713C9.38268 8.41112 9.00189 8.6206 8.59961 8.72416V9.00007C8.59961 9.33144 8.33098 9.60007 7.99961 9.60007C7.66824 9.60007 7.39961 9.33144 7.39961 9.00007V8.60008C7.39961 8.02384 7.85557 7.6627 8.26468 7.57067C8.47819 7.52264 8.68089 7.41585 8.84814 7.2486C9.31677 6.77997 9.31677 6.02018 8.84814 5.55155C8.37951 5.08292 7.61971 5.08292 7.15108 5.55155ZM7.99961 12.0001C8.44144 12.0001 8.79961 11.6419 8.79961 11.2001C8.79961 10.7583 8.44144 10.4001 7.99961 10.4001C7.55778 10.4001 7.19961 10.7583 7.19961 11.2001C7.19961 11.6419 7.55778 12.0001 7.99961 12.0001Z" fill="#9CA6B9"/>
</svg>
