<svg width="13" height="14" viewBox="0 0 13 14" fill="none" xmlns="http://www.w3.org/2000/svg">
<path d="M4.68231 1.6267C4.74258 1.26506 5.05547 1 5.4221 1H7.15141C7.51804 1 7.83093 1.26506 7.89121 1.6267L8.03354 2.48073C8.0751 2.7301 8.24175 2.93781 8.46293 3.06024C8.51238 3.08761 8.56126 3.11589 8.60955 3.14505C8.82624 3.27589 9.08979 3.31658 9.32684 3.22777L10.1381 2.92385C10.4814 2.79523 10.8674 2.93367 11.0507 3.25118L11.9154 4.74881C12.0987 5.06632 12.0256 5.46982 11.7425 5.70284L11.073 6.25405C10.878 6.41459 10.7813 6.66248 10.786 6.91502C10.7865 6.94328 10.7868 6.97161 10.7868 7C10.7868 7.02839 10.7865 7.05671 10.786 7.08497C10.7813 7.33751 10.878 7.58541 11.073 7.74594L11.7425 8.29715C12.0256 8.53017 12.0987 8.93367 11.9154 9.25118L11.0507 10.7488C10.8674 11.0663 10.4814 11.2048 10.1381 11.0761L9.32685 10.7722C9.0898 10.6834 8.82625 10.7241 8.60956 10.8549C8.56127 10.8841 8.51238 10.9124 8.46293 10.9398C8.24175 11.0622 8.07511 11.2699 8.03355 11.5193L7.89121 12.3733C7.83093 12.7349 7.51804 13 7.15141 13H5.4221C5.05547 13 4.74258 12.7349 4.68231 12.3733L4.53997 11.5193C4.49841 11.2699 4.33176 11.0622 4.11058 10.9398C4.06113 10.9124 4.01225 10.8841 3.96396 10.855C3.74727 10.7241 3.48372 10.6834 3.24668 10.7722L2.43543 11.0761C2.0921 11.2048 1.70611 11.0663 1.52279 10.7488L0.65814 9.25119C0.474825 8.93368 0.547928 8.53018 0.830981 8.29716L1.50055 7.74595C1.69555 7.58542 1.79222 7.33752 1.78754 7.08498C1.78702 7.05672 1.78676 7.02839 1.78676 7C1.78676 6.97161 1.78702 6.94329 1.78754 6.91503C1.79222 6.66249 1.69555 6.41459 1.50055 6.25406L0.830981 5.70285C0.547927 5.46983 0.474825 5.06633 0.65814 4.74882L1.52279 3.25119C1.70611 2.93368 2.0921 2.79524 2.43543 2.92386L3.24667 3.22778C3.48371 3.31658 3.74726 3.2759 3.96395 3.14505C4.01224 3.11589 4.06113 3.08761 4.11058 3.06024C4.33176 2.93781 4.49841 2.7301 4.53997 2.48073L4.68231 1.6267Z" />
<path d="M8.2866 6.99995C8.2866 8.10452 7.39117 8.99995 6.2866 8.99995C5.18203 8.99995 4.2866 8.10452 4.2866 6.99995C4.2866 5.89538 5.18203 4.99995 6.2866 4.99995C7.39117 4.99995 8.2866 5.89538 8.2866 6.99995Z" />
</svg>
