<svg width="15" height="13" viewBox="0 0 15 13" fill="none" xmlns="http://www.w3.org/2000/svg">
<path d="M11.2866 10.4794C11.4516 10.4931 11.6185 10.5 11.787 10.5C12.4859 10.5 13.1569 10.3805 13.7806 10.1608C13.7849 10.1078 13.787 10.0541 13.787 10C13.787 8.89543 12.8916 8 11.787 8C11.3686 8 10.9802 8.12849 10.6591 8.34815M11.2866 10.4794C11.2866 10.4863 11.2866 10.4931 11.2866 10.5C11.2866 10.65 11.2784 10.7981 11.2623 10.9438C10.0911 11.6158 8.73373 12 7.28662 12C5.83951 12 4.48214 11.6158 3.31096 10.9438C3.29488 10.7981 3.28662 10.65 3.28662 10.5C3.28662 10.4932 3.28664 10.4863 3.28667 10.4795M11.2866 10.4794C11.2826 9.69506 11.0529 8.96408 10.6591 8.34815M10.6591 8.34815C9.9485 7.23679 8.7036 6.5 7.28662 6.5C5.86982 6.5 4.62506 7.23661 3.91441 8.34774M3.91441 8.34774C3.59344 8.12833 3.20526 8 2.78711 8C1.68254 8 0.787109 8.89543 0.787109 10C0.787109 10.0541 0.789261 10.1078 0.793483 10.1608C1.41724 10.3805 2.08822 10.5 2.78711 10.5C2.95534 10.5 3.12195 10.4931 3.28667 10.4795M3.91441 8.34774C3.52042 8.96377 3.29061 9.69493 3.28667 10.4795M9.28662 2.5C9.28662 3.60457 8.39119 4.5 7.28662 4.5C6.18205 4.5 5.28662 3.60457 5.28662 2.5C5.28662 1.39543 6.18205 0.5 7.28662 0.5C8.39119 0.5 9.28662 1.39543 9.28662 2.5ZM13.2866 4.5C13.2866 5.32843 12.615 6 11.7866 6C10.9582 6 10.2866 5.32843 10.2866 4.5C10.2866 3.67157 10.9582 3 11.7866 3C12.615 3 13.2866 3.67157 13.2866 4.5ZM4.28662 4.5C4.28662 5.32843 3.61505 6 2.78662 6C1.95819 6 1.28662 5.32843 1.28662 4.5C1.28662 3.67157 1.95819 3 2.78662 3C3.61505 3 4.28662 3.67157 4.28662 4.5Z" />
</svg>
